<svg xmlns="http://www.w3.org/2000/svg" xmlns:xlink="http://www.w3.org/1999/xlink" width="16" height="24" version="1.1" viewBox="0 0 16 24"><title>MENU_ICON</title><desc>Created with Sketch.</desc><g id="Artboard" fill="none" fill-rule="evenodd" stroke="none" stroke-width="1" transform="translate(-272.000000, -314.000000)"><g id="MENU_ICON" fill="#FFF" transform="translate(272.000000, 314.000000)"><path id="menu-icon" d="M0,17 L15,17 C15.5522847,17 16,17.4477153 16,18 C16,18.5522847 15.5522847,19 15,19 L0,19 L0,17 Z M0,11 L15,11 C15.5522847,11 16,11.4477153 16,12 C16,12.5522847 15.5522847,13 15,13 L0,13 L0,11 Z M0,5 L15,5 C15.5522847,5 16,5.44771525 16,6 C16,6.55228475 15.5522847,7 15,7 L0,7 L0,5 Z"/></g></g></svg>